<svg xmlns="http://www.w3.org/2000/svg" width="1200" height="780" viewBox="0 0 1200 780">
<rect width="100%" height="100%" fill="#fff"/>
<style>text{font-family:Segoe UI,Arial,sans-serif;fill:#172033}.title{font-size:25px;font-weight:700}.sub{font-size:13px;fill:#536071}.label{font-size:11px}.axis{stroke:#cbd5e1}.transition{fill:#f59e0b;opacity:.14}.policy{stroke:#7c3aed;stroke-width:1.5;stroke-dasharray:5 4}</style>
<text x="110" y="32" class="title">Canadian core steel imports into the United States</text>
<text x="110" y="53" class="sub">Official Census data · HS6 core scope · monthly, 2024–2025</text>
<text x="110" y="63" class="label" font-weight="700">Imports for consumption (USD)</text>
<line x1="110" y1="240.0" x2="1165" y2="240.0" class="axis"/>
<text x="100" y="244.0" text-anchor="end" class="label">0</text>
<line x1="110" y1="157.5" x2="1165" y2="157.5" class="axis"/>
<text x="100" y="161.5" text-anchor="end" class="label">355,709,864</text>
<line x1="110" y1="75.0" x2="1165" y2="75.0" class="axis"/>
<text x="100" y="79.0" text-anchor="end" class="label">711,419,729</text>
<rect x="729.2" y="75" width="45.9" height="165" class="transition"/>
<rect x="866.8" y="75" width="45.9" height="165" class="transition"/>
<line x1="752.2" y1="75" x2="752.2" y2="240" class="policy"/>
<line x1="889.8" y1="75" x2="889.8" y2="240" class="policy"/>
<polyline points="110.0,75.0 155.9,91.5 201.7,82.7 247.6,82.8 293.5,90.2 339.3,95.8 385.2,106.0 431.1,116.9 477.0,118.4 522.8,110.3 568.7,130.5 614.6,125.0 660.4,92.0 706.3,125.4 752.2,121.0 798.0,136.2 843.9,144.4 889.8,156.2 935.7,165.6 981.5,173.4 1027.4,169.8 1073.3,175.0 1119.1,183.4 1165.0,192.6" fill="none" stroke="#2563eb" stroke-width="3"/>
<text x="110" y="286" class="label" font-weight="700">Observed effective duty rate (%)</text>
<line x1="110" y1="463.0" x2="1165" y2="463.0" class="axis"/>
<text x="100" y="467.0" text-anchor="end" class="label">0</text>
<line x1="110" y1="380.5" x2="1165" y2="380.5" class="axis"/>
<text x="100" y="384.5" text-anchor="end" class="label">23</text>
<line x1="110" y1="298.0" x2="1165" y2="298.0" class="axis"/>
<text x="100" y="302.0" text-anchor="end" class="label">45</text>
<rect x="729.2" y="298" width="45.9" height="165" class="transition"/>
<rect x="866.8" y="298" width="45.9" height="165" class="transition"/>
<line x1="752.2" y1="298" x2="752.2" y2="463" class="policy"/>
<line x1="889.8" y1="298" x2="889.8" y2="463" class="policy"/>
<polyline points="110.0,463.0 155.9,463.0 201.7,463.0 247.6,463.0 293.5,463.0 339.3,463.0 385.2,463.0 431.1,463.0 477.0,463.0 522.8,463.0 568.7,463.0 614.6,463.0 660.4,463.0 706.3,463.0 752.2,461.4 798.0,379.7 843.9,380.5 889.8,316.0 935.7,298.4 981.5,298.0 1027.4,306.7 1073.3,301.5 1119.1,298.8 1165.0,303.9" fill="none" stroke="#7c3aed" stroke-width="3"/>
<text x="110" y="509" class="label" font-weight="700">Calculated duty (USD)</text>
<line x1="110" y1="686.0" x2="1165" y2="686.0" class="axis"/>
<text x="100" y="690.0" text-anchor="end" class="label">0</text>
<line x1="110" y1="603.5" x2="1165" y2="603.5" class="axis"/>
<text x="100" y="607.5" text-anchor="end" class="label">72,731,980</text>
<line x1="110" y1="521.0" x2="1165" y2="521.0" class="axis"/>
<text x="100" y="525.0" text-anchor="end" class="label">145,463,961</text>
<rect x="729.2" y="521" width="45.9" height="165" class="transition"/>
<rect x="866.8" y="521" width="45.9" height="165" class="transition"/>
<line x1="752.2" y1="521" x2="752.2" y2="686" class="policy"/>
<line x1="889.8" y1="521" x2="889.8" y2="686" class="policy"/>
<polyline points="110.0,686.0 155.9,686.0 201.7,686.0 247.6,686.0 293.5,686.0 339.3,686.0 385.2,686.0 431.1,686.0 477.0,686.0 522.8,686.0 568.7,686.0 614.6,686.0 660.4,686.0 706.3,686.0 752.2,683.5 798.0,570.1 843.9,580.3 889.8,521.0 935.7,521.9 981.5,538.7 1027.4,538.9 1073.3,545.4 1119.1,561.4 1165.0,584.9" fill="none" stroke="#dc2626" stroke-width="3"/>
<text x="110.0" y="708" text-anchor="middle" class="label">2024-01</text>
<text x="201.7" y="708" text-anchor="middle" class="label">2024-03</text>
<text x="293.5" y="708" text-anchor="middle" class="label">2024-05</text>
<text x="385.2" y="708" text-anchor="middle" class="label">2024-07</text>
<text x="477.0" y="708" text-anchor="middle" class="label">2024-09</text>
<text x="568.7" y="708" text-anchor="middle" class="label">2024-11</text>
<text x="660.4" y="708" text-anchor="middle" class="label">2025-01</text>
<text x="752.2" y="708" text-anchor="middle" class="label">2025-03</text>
<text x="843.9" y="708" text-anchor="middle" class="label">2025-05</text>
<text x="935.7" y="708" text-anchor="middle" class="label">2025-07</text>
<text x="1027.4" y="708" text-anchor="middle" class="label">2025-09</text>
<text x="1119.1" y="708" text-anchor="middle" class="label">2025-11</text>
<text x="1165.0" y="708" text-anchor="middle" class="label">2025-12</text>
<rect x="110" y="741" width="14" height="14" class="transition"/>
<text x="132" y="753" class="sub">Transition months (March and June 2025); excluded from clean full-month comparisons</text>
</svg>